PathFileType	4	(X/Y/Z)	/Users/itak/Documents/Research/Walk-IL/dataset/trc/00144_00007.trc
DataRate	CameraRate	NumFrames	NumMarkers	Units	OrigDataRate	OrigDataStartFrame	OrigNumFrames
100.000000	100.000000	4	53	mm	100.000000	384	512
Frame#	Time	RPSI			LPSI			L3			STRN			T10			C7			CLAV			RBAK			LBAK			LSHO			LUPA			LAEL			LAOL			LWTS			LWPS			LFRA			LIFD			LHPS			LHTS			RSHO			RUPA			RAEL			RAOL			RWTS			RWPS			RFRA			RIFD			RHTS			RHPS			RBHD			LFHD			RFHD			LBHD			LHIP			RHIP			RASI			LASI			LKNE			LTHI			LANK			LTIP			LTOE			LMT1			LMT5			LHEE			RKNE			RTHI			RANK			RTIP			RTOE			RMT1			RMT5			RHEE			
		X1	Y1	Z1	X2	Y2	Z2	X3	Y3	Z3	X4	Y4	Z4	X5	Y5	Z5	X6	Y6	Z6	X7	Y7	Z7	X8	Y8	Z8	X9	Y9	Z9	X10	Y10	Z10	X11	Y11	Z11	X12	Y12	Z12	X13	Y13	Z13	X14	Y14	Z14	X15	Y15	Z15	X16	Y16	Z16	X17	Y17	Z17	X18	Y18	Z18	X19	Y19	Z19	X20	Y20	Z20	X21	Y21	Z21	X22	Y22	Z22	X23	Y23	Z23	X24	Y24	Z24	X25	Y25	Z25	X26	Y26	Z26	X27	Y27	Z27	X28	Y28	Z28	X29	Y29	Z29	X30	Y30	Z30	X31	Y31	Z31	X32	Y32	Z32	X33	Y33	Z33	X34	Y34	Z34	X35	Y35	Z35	X36	Y36	Z36	X37	Y37	Z37	X38	Y38	Z38	X39	Y39	Z39	X40	Y40	Z40	X41	Y41	Z41	X42	Y42	Z42	X43	Y43	Z43	X44	Y44	Z44	X45	Y45	Z45	X46	Y46	Z46	X47	Y47	Z47	X48	Y48	Z48	X49	Y49	Z49	X50	Y50	Z50	X51	Y51	Z51	X52	Y52	Z52	X53	Y53	Z53	

385	3.84	820.3414306640625	1103.03125	370.2276306152344	686.4940795898438	1104.859008789062	347.74951171875	747.3631591796875	1136.700073242188	366.4276733398438	787.8602294921875	1346.50927734375	164.0524139404297	728.9700317382812	1285.337036132812	409.4462890625	715.44140625	1579.540161132812	383.1771850585938	775.5263671875	1479.282470703125	205.0565643310547	789.1470336914062	1391.253051757812	448.7673034667969	614.397705078125	1557.909423828125	356.8825378417969	576.3361206054688	1546.154418945312	254.6319427490234	508.8737182617188	1413.898803710938	232.5125732421875	511.8192443847656	1202.6240234375	161.9554901123047	539.1767578125	1174.42236328125	241.8331604003906	618.0889892578125	980.8656616210938	27.8647346496582	568.8504638671875	932.578125	85.96298980712891	526.9581298828125	1094.74169921875	117.9849090576172	665.7028198242188	799.1773071289062	-27.25575828552246	590.0159301757812	868.3763427734375	41.92771911621094	623.7664794921875	899.3240966796875	-9.664859771728516	905.304931640625	1563.971801757812	376.6033935546875	962.7266235351562	1491.528442382812	409.4595947265625	990.1102905273438	1198.5185546875	421.2167663574219	894.4668579101562	1195.031616210938	401.5587158203125	1016.313598632812	952.5154418945312	283.0044250488281	1029.862548828125	938.8180541992188	363.7632141113281	1012.674682617188	1125.855590820312	402.4276428222656	1012.703491210938	756.7496337890625	261.5108337402344	1030.887817382812	844.4912109375	259.8379821777344	1043.537231445312	838.4789428710938	331.8956298828125	804.6492919921875	1745.162841796875	376.1324768066406	684.3525390625	1832.744995117188	213.0457611083984	812.9004516601562	1846.953735351562	229.3423919677734	671.1389770507812	1733.0087890625	366.8543701171875	591.2103881835938	1021.948425292969	235.7998809814453	958.668701171875	1014.726135253906	255.9200897216797	917.1663818359375	1091.427368164062	173.6123504638672	653.1517333984375	1087.926025390625	137.1786346435547	638.7036743164062	511.3696899414062	240.0120239257812	607.5222778320312	662.2914428710938	244.0443420410156	587.1636352539062	71.58293151855469	530.969970703125	573.5296630859375	308.06982421875	416.5464172363281	743.6422729492188	32.33148956298828	361.7724914550781	732.4912109375	51.67856979370117	443.5188293457031	623.3370971679688	36.00174713134766	416.0079040527344	613.30322265625	106.417236328125	615.1734619140625	943.6373291015625	547.8211669921875	108.1180191040039	966.107177734375	815.6226806640625	180.1113586425781	945.7732543945312	23.42792320251465	87.91834259033203	961.8214111328125	413.5268249511719	96.38318634033203	901.3318481445312	63.13821411132812	-138.1215667724609	858.0136108398438	45.73736572265625	-84.78482818603516	972.1375732421875	39.58940505981445	-43.03193283081055	892.8436889648438	25.31308555603027	142.436279296875	
386	3.85	825.6431274414062	1104.183227539062	362.9216003417969	691.5618286132812	1105.324829101562	342.0254821777344	752.5682373046875	1137.511962890625	360.082763671875	790.5418701171875	1347.742309570312	157.5791168212891	734.30859375	1285.924926757812	403.2698059082031	720.5130004882812	1580.141357421875	378.1873168945312	778.6984252929688	1480.447387695312	199.0118255615234	795.0142211914062	1391.762817382812	442.26611328125	619.2127075195312	1558.651489257812	353.075927734375	580.0546875	1547.320068359375	250.9177093505859	512.275634765625	1415.057250976562	229.4349060058594	514.5192260742188	1203.3203125	160.3370971679688	543.0126342773438	1175.84912109375	239.9922637939453	617.0486450195312	978.1154174804688	28.65015983581543	568.2866821289062	931.6023559570312	88.29544830322266	528.3706665039062	1094.798583984375	117.7314605712891	661.2860717773438	794.7714233398438	-23.5632266998291	587.902099609375	866.3424072265625	45.24430847167969	621.126708984375	895.8132934570312	-7.479560852050781	910.2225341796875	1564.71484375	369.4594421386719	968.1859741210938	1492.394287109375	401.3258361816406	996.6727905273438	1199.304077148438	411.5680541992188	900.8778076171875	1195.484619140625	392.7554626464844	1022.729553222656	954.7664184570312	270.7181091308594	1036.960205078125	940.2683715820312	351.2297973632812	1019.388244628906	1126.85302734375	391.9570617675781	1019.876770019531	759.2662963867188	247.1094665527344	1037.633666992188	847.091796875	246.2666778564453	1050.8544921875	840.3574829101562	318.1656494140625	809.4364013671875	1746.0654296875	370.5069885253906	688.1901245117188	1833.796142578125	208.2172241210938	816.8768310546875	1847.799926757812	223.6590270996094	675.85009765625	1734.145385742188	362.1490783691406	595.73779296875	1021.967651367188	231.1314849853516	963.085205078125	1016.613464355469	247.1493530273438	920.26220703125	1093.020385742188	165.3217163085938	655.7575073242188	1088.612182617188	131.9853363037109	641.9335327148438	510.8550109863281	228.5704040527344	611.3068237304688	662.1032104492188	234.9564056396484	588.2166748046875	76.302734375	528.820068359375	576.5247802734375	311.4182739257812	409.5882873535156	743.5582885742188	32.04935073852539	361.0321655273438	732.7777099609375	52.69255828857422	441.8193359375	623.8761596679688	36.11395645141602	415.69091796875	615.3070068359375	113.9390411376953	611.5526123046875	946.607421875	548.2108154296875	102.8113479614258	969.5184326171875	816.9129638671875	172.1159973144531	946.4810791015625	23.12392997741699	87.69176483154297	964.3966064453125	413.5940246582031	92.13068389892578	901.424072265625	61.76078796386719	-138.9498901367188	858.2224731445312	45.47330093383789	-84.96633148193359	972.4556274414062	38.91891479492188	-43.61872863769531	893.6551513671875	25.49230003356934	142.2821655273438	
387	3.86	830.9673461914062	1105.2265625	355.6460876464844	696.666015625	1105.707763671875	336.4497985839844	757.8336181640625	1138.279907226562	353.7973327636719	793.1080932617188	1348.909790039062	151.1601867675781	739.7265014648438	1286.4736328125	397.1651306152344	725.5866088867188	1580.67138671875	373.2557373046875	781.761962890625	1481.543212890625	193.0110626220703	800.9226684570312	1392.23681640625	435.80712890625	624.0339965820312	1559.303588867188	349.377197265625	583.7128295898438	1548.410888671875	247.35302734375	515.63525390625	1416.14306640625	226.5595703125	517.1039428710938	1203.963989257812	158.8809967041016	546.76416015625	1177.185546875	238.2882995605469	615.92041015625	975.4404907226562	29.65749549865723	567.7548217773438	930.7133178710938	90.76737213134766	529.6887817382812	1094.848999023438	117.6441802978516	656.9012451171875	790.5980224609375	-19.5195484161377	585.918212890625	864.403076171875	48.77180480957031	618.5084838867188	892.42578125	-5.06743049621582	915.1154174804688	1565.415283203125	362.2607727050781	973.62646484375	1493.2197265625	393.1190490722656	1003.229736328125	1200.064819335938	401.9319458007812	907.2760620117188	1195.887084960938	384.0284423828125	1029.0205078125	957.05859375	258.3834533691406	1043.979370117188	941.7266845703125	338.6195983886719	1026.072509765625	1127.82763671875	381.4820251464844	1026.915283203125	761.8748168945312	232.5494079589844	1044.236328125	849.7709350585938	232.5870971679688	1058.061767578125	842.2769775390625	304.3011474609375	814.1760864257812	1746.905517578125	364.9166259765625	691.9982299804688	1834.790649414062	203.4325866699219	820.8270263671875	1848.577514648438	218.0157318115234	680.5250244140625	1735.240600585938	357.4797668457031	600.2864990234375	1021.898803710938	226.7274017333984	967.43310546875	1018.434387207031	238.3626403808594	923.2703247070312	1094.560424804688	157.0333709716797	658.3320922851562	1089.231567382812	126.9695892333984	644.947509765625	510.3752746582031	216.7111053466797	614.927978515625	661.9168090820312	225.6960754394531	589.375732421875	81.30148315429688	526.3450927734375	579.5126342773438	314.9604187011719	402.0928955078125	743.5120849609375	31.73397636413574	360.3897705078125	733.1007080078125	53.80564117431641	439.9835815429688	624.4747924804688	36.21028137207031	415.36279296875	617.3809814453125	121.9419250488281	607.3270263671875	949.5270385742188	548.4149169921875	98.11833953857422	972.9030151367188	818.0535278320312	164.4394989013672	947.0172729492188	22.91178321838379	87.52424621582031	966.8529052734375	413.4969787597656	88.44439697265625	901.3780517578125	60.59233474731445	-139.6667022705078	858.2817993164062	45.24786376953125	-85.09147644042969	972.5949096679688	38.45143508911133	-44.1095085144043	894.294677734375	25.61324501037598	142.1867980957031	
388	3.87	836.2625732421875	1106.138793945312	348.4244384765625	701.75830078125	1105.98876953125	331.0148010253906	763.1077880859375	1138.98681640625	347.5760498046875	795.56591796875	1349.995727539062	144.7979736328125	745.1952514648438	1286.969116210938	391.1481323242188	730.6615600585938	1581.12744140625	368.3844299316406	784.7088012695312	1482.544555664062	187.0704650878906	806.861328125	1392.667236328125	429.3998718261719	628.8624267578125	1559.850952148438	345.7650146484375	587.3096923828125	1549.394165039062	243.9428863525391	518.9656982421875	1417.116577148438	223.9109344482422	519.5646362304688	1204.525024414062	157.5883636474609	550.3888549804688	1178.396240234375	236.7344512939453	614.72705078125	972.8406982421875	30.85852813720703	567.1965942382812	929.8995971679688	93.31157684326172	530.902587890625	1094.868041992188	117.7100372314453	652.6317749023438	786.6647338867188	-15.19510936737061	583.9801635742188	862.5645751953125	52.4185791015625	615.961669921875	889.1649780273438	-2.471171379089355	919.9806518554688	1566.061279296875	355.0132446289062	979.0386962890625	1493.97998046875	384.8521423339844	1009.78271484375	1200.785278320312	392.2936096191406	913.671630859375	1196.2353515625	375.3848571777344	1035.170532226562	959.366943359375	246.0121002197266	1050.91650390625	943.1770629882812	325.9414672851562	1032.7255859375	1128.765380859375	370.9894714355469	1033.809814453125	764.5498046875	217.8699493408203	1050.677368164062	852.5030517578125	218.8228607177734	1065.154663085938	844.21923828125	290.3220520019531	818.8677978515625	1747.661499023438	359.3588256835938	695.77197265625	1835.711181640625	198.6914367675781	824.7433471679688	1849.269287109375	212.4125823974609	685.1611938476562	1736.26953125	352.8451232910156	604.8184814453125	1021.755004882812	222.5339813232422	971.68505859375	1020.164794921875	229.5989379882812	926.1817016601562	1096.009765625	148.7897491455078	660.8922729492188	1089.7587890625	122.1316223144531	647.7424926757812	509.9802551269531	204.5127868652344	618.38671875	661.761474609375	216.3095855712891	590.66259765625	86.56651306152344	523.5232543945312	582.4752197265625	318.67529296875	394.0780944824219	743.525390625	31.35583877563477	359.842041015625	733.4794921875	55.02838516235352	437.9935302734375	625.1539916992188	36.32888793945312	415.0167846679688	619.5100708007812	130.3793487548828	602.4720458984375	952.3956298828125	548.4397583007812	94.00907897949219	976.2999877929688	819.0465087890625	157.0999145507812	947.387451171875	22.78287696838379	87.39949035644531	969.2084350585938	413.2533264160156	85.30443572998047	901.249267578125	59.57321548461914	-140.3049011230469	858.2415771484375	45.02949905395508	-85.18817901611328	972.5960693359375	38.11258316040039	-44.52361297607422	894.7600708007812	25.69068336486816	142.1352386474609	
